<?xml version="1.0"?>
<svg xmlns="http://www.w3.org/2000/svg" height="512px" viewBox="-64 -21 682 682.66669" width="512px"><g><path d="m256.875 56.25h-18.75v-18.75h18.75zm-31.25 0h-18.75v-18.75h18.75zm0 0" data-original="#000000" class="active-path" data-old_color="#000000" fill="#405CA1"/><path d="m425.625 116.164062h-75.535156v-75.539062h-18.75v94.289062h94.285156zm0 0" data-original="#000000" class="active-path" data-old_color="#000000" fill="#405CA1"/><path d="m81.875 149.730469h175v18.75h-175zm0 0" data-original="#000000" class="active-path" data-old_color="#000000" fill="#405CA1"/><path d="m119.375 224.730469h262.5v18.75h-262.5zm0 0" data-original="#000000" class="active-path" data-old_color="#000000" fill="#405CA1"/><path d="m81.875 268.480469h300v18.75h-300zm0 0" data-original="#000000" class="active-path" data-old_color="#000000" fill="#405CA1"/><path d="m81.875 312.230469h262.5v18.75h-262.5zm0 0" data-original="#000000" class="active-path" data-old_color="#000000" fill="#405CA1"/><path d="m119.375 355.980469h262.5v18.75h-262.5zm0 0" data-original="#000000" class="active-path" data-old_color="#000000" fill="#405CA1"/><path d="m81.875 399.730469h300v18.75h-300zm0 0" data-original="#000000" class="active-path" data-old_color="#000000" fill="#405CA1"/><path d="m81.875 443.480469h262.5v18.75h-262.5zm0 0" data-original="#000000" class="active-path" data-old_color="#000000" fill="#405CA1"/><path d="m514.582031 324.023438h-20.261719l-31.523437 31.523437 57.554687 57.554687 31.523438-31.523437v-20.257813zm18.542969 49.789062-12.773438 12.773438-31.035156-31.039063 12.773438-12.773437h4.726562l26.308594 26.3125zm0 0" data-original="#000000" class="active-path" data-old_color="#000000" fill="#405CA1"/><path d="m502.734375 430.722656-13.261719-13.257812-180.644531 180.640625-44.507813 13.472656 13.472657-44.507813 180.644531-180.644531-13.261719-13.257812-183.96875 183.972656-19.398437 64.109375h-225.558594v-602.5h320.582031l110.667969 110.667969v189.0625h18.75v-196.832031l-121.648438-121.648438h-347.101562v640h468.75v-125.171875h-18.75v106.421875h-150.40625l21.671875-6.558594zm0 0" data-original="#000000" class="active-path" data-old_color="#000000" fill="#405CA1"/></g> </svg>
